<?xml version="1.0" standalone="no"?><!DOCTYPE svg PUBLIC "-//W3C//DTD SVG 1.1//EN" "http://www.w3.org/Graphics/SVG/1.1/DTD/svg11.dtd"><svg t="1584889386683" class="icon" viewBox="0 0 1024 1024" version="1.1" xmlns="http://www.w3.org/2000/svg" p-id="9691" width="16" height="16" xmlns:xlink="http://www.w3.org/1999/xlink"><defs><style type="text/css"></style></defs><path d="M420.56 307.52c47.2 0 216.16-0.8 216.16 45.76l176 376.16c0 46.56-55.2 151.84-170.56 151.84-47.04 0-363.52 12.8-357.92-151.84V459.36c0-46.56 89.28-151.84 136.32-151.84z m-295.84 80.64h34.56a64 64 0 0 1 64 64v303.52a64 64 0 0 1-64 64h-34.56a64 64 0 0 1-64-64V452.16a64 64 0 0 1 64-64z" fill="#448AFF" p-id="9692"></path><path d="M948.24 378.24l-191.2 119.04h151.68a32 32 0 0 1 32 32v208a32.096 32.096 0 0 1-32 32h-432a32 32 0 0 1-32-32v-208a32 32 0 0 1 31.04-32l-48.32-77.44a32.128 32.128 0 0 1 10.24-44.16l366.72-228.32a31.76 31.76 0 0 1 44 10.24l110.08 176.48a32.272 32.272 0 0 1-10.24 44.16z" fill="#F8480A" p-id="9693"></path><path d="M711.28 608.16v10.4h42.72a10.256 10.256 0 1 1 0 20.48h-42.72v30.88h42.72a10.256 10.256 0 1 1 0 20.48h-42.72v20.64a10.384 10.384 0 0 1-10.56 10.24 10.528 10.528 0 0 1-10.72-10.24v-20.64h-42.72a10.24 10.24 0 1 1 0-20.48h42.72v-30.88h-42.72a10.48 10.48 0 0 1-10.56-10.24 10.384 10.384 0 0 1 10.56-10.24h42.72v-20.64l-40.8-35.04a10.048 10.048 0 0 1 0-14.56 10.928 10.928 0 0 1 15.04 0l36.8 35.36 35.52-34.24a10.448 10.448 0 0 1 14.4 0 9.6 9.6 0 0 1 0 13.92l-39.52 34.56s-0.16 9.12-0.16 10.24z" fill="#FFFFFF" p-id="9694"></path><path d="M694.32 350.88l6.08 8.16 34.24-25.44a10.288 10.288 0 1 1 12.32 16.48l-34.24 25.44 18.4 24.8 34.24-25.44a10.288 10.288 0 1 1 12.32 16.48l-34.24 25.44 12.16 16.48a10.352 10.352 0 0 1-2.4 14.56 10.544 10.544 0 0 1-14.72-1.76l-12.32-16.48-34.24 25.44a10.24 10.24 0 1 1-12.16-16.48l34.24-25.44-18.4-24.8-34.24 25.44a10.288 10.288 0 1 1-12.32-16.48l34.24-25.44-6.08-8.32c-1.12-1.28-6.08-8.16-6.08-8.16l-53.76-3.84a9.984 9.984 0 0 1-8.64-11.68 10.816 10.816 0 0 1 12-8.96l50.56 6.4 8.16-48.64a10.64 10.64 0 0 1 11.68-8.64 9.808 9.808 0 0 1 8.32 11.2l-11.2 51.36s5.28 7.36 6.08 8.32z" fill="#FFFFFF" p-id="9695"></path><path d="M513.52 290.08a64 64 0 0 1-4 90.4l-82.56 75.68a64.032 64.032 0 0 1-86.56-94.4l82.56-75.68a64.192 64.192 0 0 1 90.56 4z" fill="#448AFF" p-id="9696"></path></svg>